<svg width="28" height="28" viewBox="0 0 28 28" fill="none" xmlns="http://www.w3.org/2000/svg">
<g clip-path="url(#clip0_351_142)">
<path d="M20.9127 0H7.08733C5.20765 0 3.40496 0.746699 2.07583 2.07583C0.746699 3.40496 0 5.20765 0 7.08733L0 20.9127C0 22.7923 0.746699 24.595 2.07583 25.9242C3.40496 27.2533 5.20765 28 7.08733 28H11.8381V17.9939H8.32936V13.9728H11.8381V10.9531C11.8381 7.48323 13.903 5.57361 17.0624 5.57361C18.1027 5.58775 19.1405 5.67856 20.1675 5.8453V9.24536H18.4131C18.1162 9.20566 17.8141 9.23334 17.5293 9.32635C17.2446 9.41936 16.9844 9.5753 16.7682 9.78261C16.5519 9.98991 16.3851 10.2433 16.2802 10.5238C16.1752 10.8044 16.1348 11.105 16.1619 11.4034V13.9728H19.9967L19.4067 17.9939H16.1619V27.9922H20.9127C22.7923 27.9922 24.595 27.2455 25.9242 25.9164C27.2533 24.5873 28 22.7846 28 20.9049V7.08733C28 5.20765 27.2533 3.40496 25.9242 2.07583C24.595 0.746699 22.7923 0 20.9127 0V0Z" fill="#00D1FF"/>
</g>
<defs>
<clipPath id="clip0_351_142">
<rect width="28" height="28" fill="white"/>
</clipPath>
</defs>
</svg>
