<svg width="37" height="33" viewBox="0 0 37 33" fill="none" xmlns="http://www.w3.org/2000/svg">
<path d="M27.4583 14.7083H25.6666C25.1915 14.7083 24.7357 14.8971 24.3997 15.2331C24.0637 15.5691 23.875 16.0248 23.875 16.5C23.875 16.9752 24.0637 17.4309 24.3997 17.7669C24.7357 18.1029 25.1915 18.2917 25.6666 18.2917H27.4583C27.9335 18.2917 28.3892 18.1029 28.7252 17.7669C29.0612 17.4309 29.25 16.9752 29.25 16.5C29.25 16.0248 29.0612 15.5691 28.7252 15.2331C28.3892 14.8971 27.9335 14.7083 27.4583 14.7083ZM27.4583 21.875H25.6666C25.1915 21.875 24.7357 22.0638 24.3997 22.3998C24.0637 22.7358 23.875 23.1915 23.875 23.6667C23.875 24.1418 24.0637 24.5976 24.3997 24.9336C24.7357 25.2696 25.1915 25.4583 25.6666 25.4583H27.4583C27.9335 25.4583 28.3892 25.2696 28.7252 24.9336C29.0612 24.5976 29.25 24.1418 29.25 23.6667C29.25 23.1915 29.0612 22.7358 28.7252 22.3998C28.3892 22.0638 27.9335 21.875 27.4583 21.875ZM16.7083 11.125H27.4583C27.9335 11.125 28.3892 10.9362 28.7252 10.6002C29.0612 10.2642 29.25 9.80851 29.25 9.33333C29.25 8.85815 29.0612 8.40244 28.7252 8.06643C28.3892 7.73043 27.9335 7.54167 27.4583 7.54167H16.7083C16.2331 7.54167 15.7774 7.73043 15.4414 8.06643C15.1054 8.40244 14.9166 8.85815 14.9166 9.33333C14.9166 9.80851 15.1054 10.2642 15.4414 10.6002C15.7774 10.9362 16.2331 11.125 16.7083 11.125ZM34.625 0.375H9.54165C9.06647 0.375 8.61075 0.563764 8.27475 0.899767C7.93874 1.23577 7.74998 1.69149 7.74998 2.16667V7.54167H2.37498C1.8998 7.54167 1.44408 7.73043 1.10808 8.06643C0.772077 8.40244 0.583313 8.85815 0.583313 9.33333V27.25C0.583313 28.6755 1.14961 30.0427 2.15761 31.0507C3.16562 32.0587 4.53277 32.625 5.95831 32.625H29.25C31.1507 32.625 32.9736 31.8699 34.3176 30.5259C35.6616 29.1819 36.4166 27.3591 36.4166 25.4583V2.16667C36.4166 1.69149 36.2279 1.23577 35.8919 0.899767C35.5559 0.563764 35.1002 0.375 34.625 0.375ZM7.74998 27.25C7.74998 27.7252 7.56121 28.1809 7.22521 28.5169C6.88921 28.8529 6.43349 29.0417 5.95831 29.0417C5.48313 29.0417 5.02742 28.8529 4.69141 28.5169C4.35541 28.1809 4.16665 27.7252 4.16665 27.25V11.125H7.74998V27.25ZM32.8333 25.4583C32.8333 26.4087 32.4558 27.3201 31.7838 27.9921C31.1118 28.6641 30.2003 29.0417 29.25 29.0417H11.0108C11.2194 28.4671 11.3285 27.8612 11.3333 27.25V3.95833H32.8333V25.4583ZM16.7083 18.2917H18.5C18.9752 18.2917 19.4309 18.1029 19.7669 17.7669C20.1029 17.4309 20.2916 16.9752 20.2916 16.5C20.2916 16.0248 20.1029 15.5691 19.7669 15.2331C19.4309 14.8971 18.9752 14.7083 18.5 14.7083H16.7083C16.2331 14.7083 15.7774 14.8971 15.4414 15.2331C15.1054 15.5691 14.9166 16.0248 14.9166 16.5C14.9166 16.9752 15.1054 17.4309 15.4414 17.7669C15.7774 18.1029 16.2331 18.2917 16.7083 18.2917ZM16.7083 25.4583H18.5C18.9752 25.4583 19.4309 25.2696 19.7669 24.9336C20.1029 24.5976 20.2916 24.1418 20.2916 23.6667C20.2916 23.1915 20.1029 22.7358 19.7669 22.3998C19.4309 22.0638 18.9752 21.875 18.5 21.875H16.7083C16.2331 21.875 15.7774 22.0638 15.4414 22.3998C15.1054 22.7358 14.9166 23.1915 14.9166 23.6667C14.9166 24.1418 15.1054 24.5976 15.4414 24.9336C15.7774 25.2696 16.2331 25.4583 16.7083 25.4583Z" fill="#00D1FF"/>
</svg>
