<svg width="188" height="22" viewBox="0 0 188 22" fill="none" xmlns="http://www.w3.org/2000/svg">
<path d="M49.3297 9.50001H44.0017C42.8874 9.50001 42.4215 9.02001 42.4215 7.90001V6.18002C42.4215 4.90001 42.9685 4.32001 44.2245 4.32001H52.6926V1.64001H44.0219C41.1857 1.64001 39.6866 3.14001 39.6866 5.98001V8.04001C39.6866 10.64 41.0642 12.02 43.637 12.02H49.0056C50.1198 12.02 50.5857 12.5 50.5857 13.62V15.82C50.5857 17.1 50.0185 17.68 48.7624 17.68H39.8284V20.36H48.965C51.8012 20.36 53.3004 18.86 53.3004 16.02V13.48C53.2801 10.88 51.9025 9.50001 49.3297 9.50001Z" fill="white"/>
<path d="M66.7116 1.64001H56.947V20.38H59.7021V12.4H66.7116C69.6491 12.4 71.1888 10.84 71.1888 7.88001V6.14001C71.1888 3.20001 69.6491 1.64001 66.7116 1.64001ZM68.4539 7.86001C68.4539 9.20001 67.8664 9.80001 66.5495 9.80001H59.7021V4.32001H66.5495C67.8664 4.32001 68.4539 4.92001 68.4539 6.26001V7.86001Z" fill="white"/>
<path d="M84.4379 1.64001H78.6844C75.7469 1.64001 74.2073 3.20001 74.2073 6.14001V15.88C74.2073 18.82 75.7469 20.38 78.6844 20.38H84.4379C87.3754 20.38 88.915 18.82 88.915 15.88V6.12001C88.915 3.18001 87.3551 1.64001 84.4379 1.64001ZM86.1396 15.58C86.1396 17.04 85.4913 17.68 84.0732 17.68H79.0288C77.5905 17.68 76.9624 17.04 76.9624 15.58V6.42001C76.9624 4.96001 77.6107 4.32001 79.0288 4.32001H84.0732C85.5116 4.32001 86.1396 4.96001 86.1396 6.42001V15.58Z" fill="white"/>
<path d="M91.5284 1.64001V4.32001H96.978V20.36H99.7331V4.32001H105.122V1.64001H91.5284Z" fill="white"/>
<path d="M124.145 4.70001V1.64001H110.227V5.66001H118.412L110.207 17.06V20.36H124.226V16.34H115.798L124.145 4.70001Z" fill="#00D1FF"/>
<path d="M137.779 1.64001H132.512C129.392 1.64001 127.609 3.42001 127.609 6.54001V15.48C127.609 18.6 129.392 20.38 132.512 20.38H137.779C140.899 20.38 142.681 18.6 142.681 15.48V6.54001C142.661 3.42001 140.878 1.64001 137.779 1.64001ZM138.549 6.80001V15.2C138.549 16.1 138.306 16.34 137.434 16.34H132.815C131.944 16.34 131.701 16.1 131.701 15.2V6.80001C131.701 5.90001 131.944 5.66001 132.815 5.66001H137.434C138.306 5.66001 138.549 5.90001 138.549 6.80001Z" fill="#00D1FF"/>
<path d="M150.603 1.64001H146.49V20.38H150.603V1.64001Z" fill="#00D1FF"/>
<path d="M165.553 12.32L158.26 1.64001H154.553V20.36H158.605V9.26001L166.283 20.36H169.625V1.64001H165.553V12.32Z" fill="#00D1FF"/>
<path d="M179.269 8.70001V12.54H183.969V15.46C183.969 16.18 183.806 16.34 183.077 16.34H178.62C177.749 16.34 177.506 16.1 177.506 15.2V6.80001C177.506 5.90001 177.749 5.66001 178.62 5.66001H187.595V1.64001H178.337C175.217 1.64001 173.434 3.42001 173.434 6.54001V15.48C173.434 18.6 175.217 20.38 178.337 20.38H183.462C186.339 20.38 188 18.74 188 15.88V8.70001H179.269Z" fill="#00D1FF"/>
<path d="M30.5297 0.0600586H14.4241C10.2914 0.0600586 6.56377 2.46006 4.92282 6.20006L0.364631 16.5001C-0.769852 19.0601 1.13446 21.9401 3.97067 21.9401H20.1168C24.2698 21.9401 28.0379 19.5001 29.7194 15.7401L34.1965 5.60006C35.3513 2.98006 33.4064 0.0600586 30.5297 0.0600586ZM17.4224 18.3001C16.7741 18.3001 16.1258 18.2201 15.5181 18.0601C15.1939 17.7601 15.1939 17.4401 15.4776 16.9201C15.903 16.1601 17.706 14.9401 19.7319 13.8401C21.231 13.0201 23.6823 11.7601 24.8168 11.1601C24.7155 15.1401 21.4336 18.3001 17.4224 18.3001ZM26.0931 8.74006C25.7082 9.02006 25.222 9.34006 24.6952 9.68006C22.6694 10.9601 19.7521 12.5601 16.8146 13.6001C14.5862 14.3801 13.006 14.9601 11.4461 15.3201C10.3926 15.5601 9.35946 15.7001 8.14394 15.7801C7.69825 15.8001 6.46248 15.7201 6.60429 14.8801C6.66506 14.5001 7.09049 13.6401 9.37972 12.1201L9.46075 12.8001C9.46075 12.8001 8.87325 13.2401 8.65041 13.5601C8.42756 13.8801 8.44782 14.2601 9.0961 14.3201C9.39998 14.3401 9.9267 14.3401 10.7573 14.1801C10.2711 13.2001 10.0077 12.1401 10.0077 11.0001C10.0077 6.96006 13.3301 3.70006 17.4021 3.70006C20.5422 3.70006 23.2366 5.64006 24.3103 8.38006C24.4724 8.28006 24.6142 8.18006 24.6952 8.12006C25.4245 7.54006 25.7892 7.14006 25.7284 6.80006C25.6676 6.46006 24.7358 6.46006 24.1685 6.60006L23.7836 6.08006C23.7836 6.08006 25.303 5.58006 27.025 5.78006C28.747 5.96006 27.9569 7.42006 26.0931 8.74006Z" fill="white"/>
</svg>
