<svg width="28" height="28" viewBox="0 0 28 28" fill="none" xmlns="http://www.w3.org/2000/svg">
<g clip-path="url(#clip0_351_140)">
<path d="M20.9127 0H7.08733C5.20765 0 3.40496 0.746699 2.07583 2.07583C0.746699 3.40496 0 5.20765 0 7.08733L0 20.9127C0 22.7923 0.746699 24.595 2.07583 25.9242C3.40496 27.2533 5.20765 28 7.08733 28H20.9127C21.8434 28 22.765 27.8167 23.6249 27.4605C24.4847 27.1043 25.2661 26.5823 25.9242 25.9242C26.5823 25.2661 27.1043 24.4847 27.4605 23.6249C27.8167 22.765 28 21.8434 28 20.9127V7.08733C28 5.20765 27.2533 3.40496 25.9242 2.07583C24.595 0.746699 22.7923 0 20.9127 0V0ZM21.6889 9.36956C21.6906 9.45619 21.6633 9.5409 21.6113 9.6102C21.2788 10.0875 20.8757 10.5115 20.4159 10.8678C20.346 10.9221 20.2296 10.9764 20.2296 11.0696C20.2923 12.3068 20.1077 13.544 19.6865 14.709C19.2653 15.874 18.616 16.9432 17.7765 17.8542C16.6102 18.9438 15.1786 19.7086 13.6245 20.0723C12.0703 20.4359 10.448 20.3858 8.91932 19.9268C8.32712 19.7613 7.75454 19.5322 7.21153 19.2437C7.02767 19.1468 6.8489 19.0406 6.67591 18.9254C6.62933 18.8866 6.59828 18.8556 6.67591 18.8323C6.75354 18.809 6.73801 18.8323 6.87774 18.8323C7.74511 18.9074 8.61851 18.7962 9.43942 18.5062C10.0699 18.3523 10.6518 18.0427 11.1317 17.6058C11.023 17.6058 10.9066 17.6058 10.7979 17.5592C10.2435 17.4537 9.72547 17.2077 9.29328 16.8449C8.86109 16.482 8.52921 16.0143 8.32936 15.4866C8.32936 15.4089 8.32936 15.3624 8.41475 15.3779C8.80274 15.4432 9.19892 15.4432 9.58692 15.3779C9.4506 15.3519 9.31776 15.3102 9.19102 15.2537C8.66813 15.0425 8.21073 14.6962 7.86565 14.2502C7.52057 13.8041 7.30018 13.2744 7.22706 12.7153C7.216 12.5965 7.216 12.477 7.22706 12.3582C7.22706 12.2728 7.27363 12.2495 7.3435 12.2961C7.71893 12.4693 8.12565 12.5644 8.53895 12.5755C8.40258 12.4727 8.27293 12.3612 8.15082 12.2418C7.6736 11.766 7.36058 11.1503 7.25727 10.4844C7.15396 9.81849 7.26575 9.13698 7.57638 8.53895C7.63848 8.45356 7.67729 8.45356 7.74716 8.53895C9.36725 10.3079 11.5851 11.4141 13.9728 11.644C14.0349 11.644 14.0427 11.644 14.0349 11.5742C13.9343 11.0172 13.9844 10.4436 14.18 9.91252C14.3756 9.38147 14.7096 8.91234 15.1474 8.55372C15.5852 8.1951 16.1108 7.96001 16.67 7.87279C17.2292 7.78558 17.8015 7.8494 18.3277 8.05767C18.6454 8.19094 18.9412 8.37153 19.2049 8.59329C19.2592 8.63987 19.3058 8.70197 19.3601 8.75631C19.3787 8.76803 19.4003 8.77425 19.4222 8.77425C19.4442 8.77425 19.4657 8.76803 19.4843 8.75631C20.1145 8.60506 20.7225 8.37284 21.293 8.06543C21.3183 8.05713 21.3455 8.05713 21.3707 8.06543C21.3707 8.06543 21.3707 8.11977 21.3707 8.15082C21.2602 8.48691 21.0892 8.79997 20.8661 9.07458C20.7186 9.25312 20.3615 9.69559 20.0898 9.73441C20.6245 9.66 21.1468 9.51378 21.6424 9.2997C21.7045 9.2997 21.7045 9.26088 21.7045 9.2997L21.6889 9.36956Z" fill="#00D1FF"/>
</g>
<defs>
<clipPath id="clip0_351_140">
<rect width="28" height="28" fill="white"/>
</clipPath>
</defs>
</svg>
