<svg width="28" height="28" viewBox="0 0 28 28" fill="none" xmlns="http://www.w3.org/2000/svg">
<g clip-path="url(#clip0_351_137)">
<path d="M16.2473 14.1902L12.6066 12.203C12.4591 12.1176 11.9468 12.203 11.9468 12.3971V16.2784C11.9468 16.4414 12.4514 16.5501 12.5988 16.4725L16.4103 14.5861C16.5656 14.5007 16.4026 14.2756 16.2473 14.1902Z" fill="#00D1FF"/>
<path d="M20.9127 0H7.08733C5.20765 0 3.40496 0.746699 2.07583 2.07583C0.746699 3.40496 0 5.20765 0 7.08733L0 20.9127C0 22.7923 0.746699 24.595 2.07583 25.9242C3.40496 27.2533 5.20765 28 7.08733 28H20.9127C21.8434 28 22.765 27.8167 23.6249 27.4605C24.4847 27.1043 25.2661 26.5823 25.9242 25.9242C26.5823 25.2661 27.1043 24.4847 27.4605 23.6249C27.8167 22.765 28 21.8434 28 20.9127V7.08733C28 5.20765 27.2533 3.40496 25.9242 2.07583C24.595 0.746699 22.7923 0 20.9127 0V0ZM21.4017 16.3016C21.3997 17.1815 21.0487 18.0245 20.4259 18.6459C19.803 19.2673 18.9591 19.6163 18.0793 19.6163H9.58692C8.70781 19.6163 7.86471 19.2671 7.24309 18.6455C6.62147 18.0238 6.27225 17.1807 6.27225 16.3016V12.3116C6.27123 11.8757 6.35621 11.4438 6.52233 11.0408C6.68845 10.6377 6.93245 10.2714 7.24034 9.96277C7.54824 9.65416 7.91399 9.40931 8.31665 9.24224C8.71931 9.07518 9.15097 8.98919 9.58692 8.98919H18.0793C18.5156 8.98919 18.9476 9.07512 19.3507 9.24209C19.7538 9.40906 20.1201 9.65379 20.4286 9.9623C20.7371 10.2708 20.9818 10.6371 21.1488 11.0402C21.3158 11.4433 21.4017 11.8753 21.4017 12.3116V16.3016Z" fill="#00D1FF"/>
</g>
<defs>
<clipPath id="clip0_351_137">
<rect width="28" height="28" fill="white"/>
</clipPath>
</defs>
</svg>
